<?xml version="1.0" encoding="utf-8"?>
<!-- Generated by IcoMoon.io -->
<svg version="1.1" xmlns="http://www.w3.org/2000/svg" xmlns:xlink="http://www.w3.org/1999/xlink" width="752" height="128" viewBox="0 0 752 128">
<svg id="nimbl3-tick-white" width="32" height="32" viewBox="0 0 32 32" x="0" y="0">
<path fill="#fbfbfb" d="M28.32 4.24c-0.482-0.482-1.271-0.482-1.753 0l-15.55 15.551c-0.482 0.482-1.271 0.482-1.753 0l-3.83-3.83c-0.482-0.482-1.271-0.482-1.753 0l-2.349 2.35c-0.482 0.482-0.482 1.271 0 1.753l7.932 7.931c0.482 0.482 1.271 0.482 1.753 0l19.652-19.653c0.482-0.482 0.482-1.271 0-1.753l-2.349-2.349z"></path>
</svg>
<svg id="nimbl3-shopping-cart-purple" width="32" height="32" viewBox="0 0 32 32" x="48" y="0">
<path fill="#d18ee2" d="M9.6 25.6c-1.76 0-3.2 1.44-3.2 3.2s1.44 3.2 3.2 3.2c1.76 0 3.2-1.44 3.2-3.2s-1.44-3.2-3.2-3.2v0 0zM0 0v3.2h3.2l5.76 12.16-2.24 3.84c-0.16 0.48-0.32 1.12-0.32 1.6 0 1.76 1.44 3.2 3.2 3.2h19.2v-3.2h-18.56c-0.16 0-0.32-0.16-0.32-0.32v-0.16l1.44-2.72h11.84c1.28 0 2.24-0.64 2.72-1.6l5.76-10.4c0.32-0.32 0.32-0.48 0.32-0.8 0-0.96-0.64-1.6-1.6-1.6h-23.68l-1.44-3.2h-5.28zM25.6 25.6c-1.76 0-3.2 1.44-3.2 3.2s1.44 3.2 3.2 3.2c1.76 0 3.2-1.44 3.2-3.2s-1.44-3.2-3.2-3.2v0 0z"></path>
</svg>
<svg id="nimbl3-shopping-cart-white" width="32" height="32" viewBox="0 0 32 32" x="96" y="0">
<path fill="#fff" d="M9.6 25.6c-1.76 0-3.2 1.44-3.2 3.2s1.44 3.2 3.2 3.2c1.76 0 3.2-1.44 3.2-3.2s-1.44-3.2-3.2-3.2v0 0zM0 0v3.2h3.2l5.76 12.16-2.24 3.84c-0.16 0.48-0.32 1.12-0.32 1.6 0 1.76 1.44 3.2 3.2 3.2h19.2v-3.2h-18.56c-0.16 0-0.32-0.16-0.32-0.32v-0.16l1.44-2.72h11.84c1.28 0 2.24-0.64 2.72-1.6l5.76-10.4c0.32-0.32 0.32-0.48 0.32-0.8 0-0.96-0.64-1.6-1.6-1.6h-23.68l-1.44-3.2h-5.28zM25.6 25.6c-1.76 0-3.2 1.44-3.2 3.2s1.44 3.2 3.2 3.2c1.76 0 3.2-1.44 3.2-3.2s-1.44-3.2-3.2-3.2v0 0z"></path>
</svg>
<svg id="nimbl3-pricing-label-white" width="32" height="32" viewBox="0 0 32 32" x="144" y="0">
<path fill="#fff" d="M28.759 0.014c-0.333-0.069-0.64 0.122-0.718 0.445-0.809 3.243-2.043 3.36-4.12 3.574-1.271 0.127-2.884 0.301-4.608 1.301-0.932 0.536-1.608 1.465-2.145 2.474l-1.889-1.088-5.052 1.26-10.227 16.272 12.486 7.188 10.218-16.308-1.205-4.831-3.317-1.91c0.453-0.873 1.007-1.658 1.697-2.058 1.481-0.864 2.863-1.018 4.097-1.135 2.161-0.197 4.201-0.401 5.232-4.497 0.086-0.288-0.115-0.618-0.447-0.687v0 0 0 0zM14.119 18.527c-0.377-0.248-1.040-0.691-2.188-0.861-1.027-0.162-1.438 0.245-1.489 0.675-0.079 0.476 0.427 0.92 1.662 1.6 1.77 0.927 2.363 1.882 2.118 3.273-0.254 1.356-1.422 2.369-3.303 2.42l-0.275 1.589-1.554-0.221 0.264-1.472c-1.036-0.198-2.014-0.638-2.556-1.073l0.795-1.719c0.589 0.461 1.492 0.92 2.51 1.047 0.906 0.154 1.586-0.129 1.712-0.731 0.089-0.592-0.333-1.019-1.458-1.575-1.586-0.821-2.605-1.745-2.341-3.218 0.254-1.356 1.402-2.288 3.126-2.338l0.264-1.472 1.554 0.221-0.217 1.346c1.036 0.198 1.709 0.524 2.225 0.852l-0.85 1.656zM17.717 9.533c1.152 0.663 1.518 2.13 0.803 3.221-0.376 0.55-0.908 0.949-1.502 1.097s-1.279 0.091-1.841-0.263c-1.152-0.663-1.509-2.095-0.803-3.221 0.339-0.541 0.908-0.949 1.502-1.097 0.223-0.056 0.418-0.066 0.612-0.077-0.162 0.459-0.296 0.872-0.401 1.24-0.297 0.074-0.53 0.246-0.7 0.517s-0.209 0.584-0.129 0.906c0.080 0.322 0.263 0.581 0.54 0.74s0.6 0.192 0.935 0.109c0.334-0.083 0.605-0.265 0.774-0.535s0.209-0.584 0.129-0.906c-0.054-0.215-0.181-0.411-0.337-0.562 0.114-0.333 0.248-0.746 0.419-1.169v0 0 0 0 0z"></path>
</svg>
<svg id="nimbl3-shapes-purple" width="32" height="32" viewBox="0 0 32 32" x="192" y="0">
<path fill="#d18ee2" d="M29.333 32h-8c-1.473 0-2.667-1.194-2.667-2.667v-8c0-1.473 1.194-2.667 2.667-2.667h8c1.473 0 2.667 1.194 2.667 2.667v8c0 1.473-1.194 2.667-2.667 2.667v0 0zM29.333 21.333h-8v8h8v-8zM10.667 13.333h-8c-1.473 0-2.667-1.194-2.667-2.667v-8c0-1.473 1.194-2.667 2.667-2.667h8c1.473 0 2.667 1.194 2.667 2.667v8c0 1.473-1.194 2.667-2.667 2.667v0zM25.412 13.176c3.639 0 6.588-2.95 6.588-6.588s-2.95-6.588-6.588-6.588c-3.639 0-6.588 2.95-6.588 6.588s2.95 6.588 6.588 6.588v0zM6.588 18.824l6.588 13.176h-13.176l6.588-13.176z"></path>
</svg>
<svg id="nimbl3-shapes-white" width="32" height="32" viewBox="0 0 32 32" x="240" y="0">
<path fill="#fff" d="M29.333 32h-8c-1.473 0-2.667-1.194-2.667-2.667v-8c0-1.473 1.194-2.667 2.667-2.667h8c1.473 0 2.667 1.194 2.667 2.667v8c0 1.473-1.194 2.667-2.667 2.667v0 0zM29.333 21.333h-8v8h8v-8zM10.667 13.333h-8c-1.473 0-2.667-1.194-2.667-2.667v-8c0-1.473 1.194-2.667 2.667-2.667h8c1.473 0 2.667 1.194 2.667 2.667v8c0 1.473-1.194 2.667-2.667 2.667v0zM25.412 13.176c3.639 0 6.588-2.95 6.588-6.588s-2.95-6.588-6.588-6.588c-3.639 0-6.588 2.95-6.588 6.588s2.95 6.588 6.588 6.588v0zM6.588 18.824l6.588 13.176h-13.176l6.588-13.176z"></path>
</svg>
<svg id="nimbl3-pricing-label-purple" width="32" height="32" viewBox="0 0 32 32" x="288" y="0">
<path fill="#d18ee2" d="M28.759 0.014c-0.333-0.069-0.64 0.122-0.718 0.445-0.809 3.243-2.043 3.36-4.12 3.574-1.271 0.127-2.884 0.301-4.608 1.301-0.932 0.536-1.608 1.465-2.145 2.474l-1.889-1.088-5.052 1.26-10.227 16.272 12.486 7.188 10.218-16.308-1.205-4.831-3.317-1.91c0.453-0.873 1.007-1.658 1.697-2.058 1.481-0.864 2.863-1.018 4.097-1.135 2.161-0.197 4.201-0.401 5.232-4.497 0.086-0.288-0.115-0.618-0.447-0.687v0 0 0 0zM14.119 18.527c-0.377-0.248-1.040-0.691-2.188-0.861-1.027-0.162-1.438 0.245-1.489 0.675-0.079 0.476 0.427 0.92 1.662 1.6 1.77 0.927 2.363 1.882 2.118 3.273-0.254 1.356-1.422 2.369-3.303 2.42l-0.275 1.589-1.554-0.221 0.264-1.472c-1.036-0.198-2.014-0.638-2.556-1.073l0.795-1.719c0.589 0.461 1.492 0.92 2.51 1.047 0.906 0.154 1.586-0.129 1.712-0.731 0.089-0.592-0.333-1.019-1.458-1.575-1.586-0.821-2.605-1.745-2.341-3.218 0.254-1.356 1.402-2.288 3.126-2.338l0.264-1.472 1.554 0.221-0.217 1.346c1.036 0.198 1.709 0.524 2.225 0.852l-0.85 1.656zM17.717 9.533c1.152 0.663 1.518 2.13 0.803 3.221-0.376 0.55-0.908 0.949-1.502 1.097s-1.279 0.091-1.841-0.263c-1.152-0.663-1.509-2.095-0.803-3.221 0.339-0.541 0.908-0.949 1.502-1.097 0.223-0.056 0.418-0.066 0.612-0.077-0.162 0.459-0.296 0.872-0.401 1.24-0.297 0.074-0.53 0.246-0.7 0.517s-0.209 0.584-0.129 0.906c0.080 0.322 0.263 0.581 0.54 0.74s0.6 0.192 0.935 0.109c0.334-0.083 0.605-0.265 0.774-0.535s0.209-0.584 0.129-0.906c-0.054-0.215-0.181-0.411-0.337-0.562 0.114-0.333 0.248-0.746 0.419-1.169v0 0 0 0 0z"></path>
</svg>
<svg id="nimbl3-poweredby" width="72" height="32" viewBox="0 0 72 32" x="336" y="0">
<path fill="#d18ee2" d="M28.759 0.014c-0.333-0.069-0.64 0.122-0.718 0.445-0.809 3.243-2.043 3.36-4.12 3.574-1.271 0.127-2.884 0.301-4.608 1.301-0.932 0.536-1.608 1.465-2.145 2.474l-1.889-1.088-5.052 1.26-10.227 16.272 12.486 7.188 10.218-16.308-1.205-4.831-3.317-1.91c0.453-0.873 1.007-1.658 1.697-2.058 1.481-0.864 2.863-1.018 4.097-1.135 2.161-0.197 4.201-0.401 5.232-4.497 0.086-0.288-0.115-0.618-0.447-0.687v0 0 0 0zM14.119 18.527c-0.377-0.248-1.040-0.691-2.188-0.861-1.027-0.162-1.438 0.245-1.489 0.675-0.079 0.476 0.427 0.92 1.662 1.6 1.77 0.927 2.363 1.882 2.118 3.273-0.254 1.356-1.422 2.369-3.303 2.42l-0.275 1.589-1.554-0.221 0.264-1.472c-1.036-0.198-2.014-0.638-2.556-1.073l0.795-1.719c0.589 0.461 1.492 0.92 2.51 1.047 0.906 0.154 1.586-0.129 1.712-0.731 0.089-0.592-0.333-1.019-1.458-1.575-1.586-0.821-2.605-1.745-2.341-3.218 0.254-1.356 1.402-2.288 3.126-2.338l0.264-1.472 1.554 0.221-0.217 1.346c1.036 0.198 1.709 0.524 2.225 0.852l-0.85 1.656zM17.717 9.533c1.152 0.663 1.518 2.13 0.803 3.221-0.376 0.55-0.908 0.949-1.502 1.097s-1.279 0.091-1.841-0.263c-1.152-0.663-1.509-2.095-0.803-3.221 0.339-0.541 0.908-0.949 1.502-1.097 0.223-0.056 0.418-0.066 0.612-0.077-0.162 0.459-0.296 0.872-0.401 1.24-0.297 0.074-0.53 0.246-0.7 0.517s-0.209 0.584-0.129 0.906c0.080 0.322 0.263 0.581 0.54 0.74s0.6 0.192 0.935 0.109c0.334-0.083 0.605-0.265 0.774-0.535s0.209-0.584 0.129-0.906c-0.054-0.215-0.181-0.411-0.337-0.562 0.114-0.333 0.248-0.746 0.419-1.169v0 0 0 0 0z"></path>
</svg>
<svg id="nimbl3-people-white" width="32" height="32" viewBox="0 0 32 32" x="432" y="0">
<path fill="#fff" d="M24.436 13.244c2.097-1.521 3.566-4.728 3.566-7.194 0-3.34-2.688-6.051-6-6.051-2.922 0-5.352 2.108-5.887 4.893 1.176 1.402 1.887 3.214 1.887 5.192 0 0.457-0.047 0.926-0.117 1.395 0.492 0.694 1.055 1.308 1.68 1.765-0.926 0.401-1.738 0.721-2.465 0.996-0.332 0.792-0.742 1.556-1.215 2.253 0.16 0.059 0.316 0.118 0.465 0.173 3.816 1.434 5.652 2.352 5.652 7.536h10.001v-4.034c0-5.086-1.594-4.325-7.567-6.925zM20.002 24.204v4.034h-20.002v-4.034c0-5.086 1.59-4.325 7.563-6.925-2.097-1.521-3.562-4.728-3.562-7.194 0-3.34 2.684-6.051 6-6.051 3.312 0 6.001 2.711 6.001 6.051 0 2.466-1.469 5.673-3.566 7.194 5.972 2.6 7.567 1.839 7.567 6.925z"></path>
</svg>
<svg id="nimbl3-people-purple" width="32" height="32" viewBox="0 0 32 32" x="480" y="0">
<path fill="#d18ee2" d="M24.434 13.243c2.097-1.521 3.566-4.727 3.566-7.193 0-3.34-2.688-6.050-6-6.050-2.922 0-5.352 2.108-5.887 4.893 1.176 1.402 1.887 3.214 1.887 5.191 0 0.457-0.047 0.926-0.117 1.395 0.492 0.694 1.055 1.308 1.68 1.765-0.926 0.401-1.738 0.721-2.465 0.996-0.332 0.792-0.742 1.556-1.215 2.253 0.16 0.059 0.316 0.118 0.465 0.173 3.816 1.434 5.652 2.352 5.652 7.536h10v-4.034c0-5.085-1.594-4.325-7.566-6.925zM20 24.202v4.034h-20v-4.034c0-5.085 1.59-4.325 7.562-6.925-2.097-1.521-3.562-4.727-3.562-7.193 0-3.34 2.684-6.050 6-6.050 3.312 0 6 2.711 6 6.050 0 2.466-1.469 5.672-3.566 7.193 5.972 2.6 7.566 1.839 7.566 6.925z"></path>
</svg>
<svg id="nimbl3-mandatory-star" width="32" height="32" viewBox="0 0 32 32" x="528" y="0">
<path fill="#cd1719" d="M30.151 14.151l-8.142-0.64 5.298-6.187c0.711-0.711 0.711-1.92 0-2.631s-1.92-0.711-2.631 0l-6.187 5.298-0.64-8.142c0-1.031-0.818-1.849-1.849-1.849s-1.849 0.818-1.849 1.849l-0.64 8.142-6.187-5.298c-0.711-0.711-1.92-0.711-2.631 0s-0.711 1.92 0 2.631l5.298 6.187-8.142 0.64c-1.031 0-1.849 0.818-1.849 1.849 0 0.498 0.213 0.996 0.533 1.316s0.818 0.533 1.316 0.533l8.142 0.64-5.298 6.187c-0.711 0.711-0.711 1.92 0 2.631 0.356 0.356 0.853 0.533 1.316 0.533s0.96-0.178 1.316-0.533l6.187-5.298 0.64 8.142c0 0.498 0.213 0.996 0.533 1.316s0.818 0.533 1.316 0.533c1.031 0 1.849-0.818 1.849-1.849l0.64-8.142 6.187 5.298c0.356 0.356 0.853 0.533 1.316 0.533s0.96-0.178 1.316-0.533c0.711-0.711 0.711-1.92 0-2.631l-5.298-6.187 8.142-0.64c1.031 0 1.849-0.818 1.849-1.849s-0.818-1.849-1.849-1.849v0z"></path>
</svg>
<svg id="nimbl3-magnifying-glass" width="32" height="32" viewBox="0 0 32 32" x="576" y="0">
<path fill="#eb8b2d" d="M30.455 32c-0.408 0.002-0.801-0.158-1.090-0.447l-7.182-7.129c-5.698 4.497-13.918 3.769-18.735-1.66s-4.557-13.671 0.594-18.786c5.15-5.114 13.4-5.323 18.803-0.475s6.080 13.066 1.544 18.732l7.167 7.134c0.288 0.289 0.448 0.682 0.445 1.090s-0.169 0.798-0.461 1.083c-0.286 0.291-0.676 0.456-1.085 0.459v0zM13.607 2.947c-5.92 0-10.719 4.796-10.719 10.712s4.799 10.712 10.719 10.712c5.92 0 10.719-4.796 10.719-10.712s-4.799-10.712-10.719-10.712v0 0z"></path>
</svg>
<svg id="nimbl3-arrow-grey" width="32" height="32" viewBox="0 0 32 32" x="624" y="0">
<path fill="#d8d8d8" d="M0 0h32v32h-32v-32z"></path>
<path fill="#dadada" d="M9.552 0l-3.733 3.733 12.267 12.267-12.267 12.267 3.733 3.733 16-16-16-16z"></path>
</svg>
<svg id="nimbl3-arrow-in-circle" width="32" height="32" viewBox="0 0 32 32" x="672" y="0">
<path fill="#89a" d="M32 16c0 8.837-7.163 16-16 16s-16-7.163-16-16c0-8.837 7.163-16 16-16s16 7.163 16 16z"></path>
<path fill="#fff" d="M15.299 12.711c-0.010 0.013-0.014-2.637-0.024-2.624l-6.982 8.229c-0.39 0.463-0.39 1.214 0 1.677 0.192 0.233 0.444 0.371 0.724 0.371h13.965c0.286 0 0.54-0.147 0.722-0.375 0.394-0.459 0.394-1.21 0.004-1.673l-6.998-8.271c-0.39-0.463-1.022-0.463-1.412 0v2.667z"></path>
</svg>
<svg id="nimbl3-arrow-purple" width="32" height="32" viewBox="0 0 32 32" x="720" y="0">
<path fill="#d18ee2" d="M9.552 0l-3.733 3.733 12.267 12.267-12.267 12.267 3.733 3.733 16-16-16-16z"></path>
</svg>
<svg id="nimbl3-arrow-white" width="32" height="32" viewBox="0 0 32 32" x="0" y="48">
<path fill="#fff" d="M9.552 0l-3.733 3.733 12.267 12.267-12.267 12.267 3.733 3.733 16-16-16-16z"></path>
</svg>
<svg id="nimbl3-box-purple" width="32" height="32" viewBox="0 0 32 32" x="48" y="48">
<path fill="#d18ee2" d="M29.333 8v0 21.333c0 1.473-1.194 2.667-2.667 2.667h-21.333c-1.473 0-2.667-1.194-2.667-2.667v-21.333c-1.473 0-2.667-1.194-2.667-2.667v-2.667c0-1.473 1.194-2.667 2.667-2.667h26.667c1.473 0 2.667 1.194 2.667 2.667v2.667c0 1.473-1.194 2.667-2.667 2.667v0 0zM5.333 29.333h21.333v-21.333h-21.333v21.333zM29.333 2.667h-26.667v2.667h26.667v-2.667zM18.667 18.667h-5.333c-2.209 0-4-1.791-4-4s1.791-4 4-4h5.333c2.209 0 4 1.791 4 4s-1.791 4-4 4v0 0z"></path>
</svg>
<svg id="nimbl3-box-white" width="32" height="32" viewBox="0 0 32 32" x="96" y="48">
<path fill="#fff" d="M29.333 8v0 21.333c0 1.473-1.194 2.667-2.667 2.667h-21.333c-1.473 0-2.667-1.194-2.667-2.667v-21.333c-1.473 0-2.667-1.194-2.667-2.667v-2.667c0-1.473 1.194-2.667 2.667-2.667h26.667c1.473 0 2.667 1.194 2.667 2.667v2.667c0 1.473-1.194 2.667-2.667 2.667v0 0zM5.333 29.333h21.333v-21.333h-21.333v21.333zM29.333 2.667h-26.667v2.667h26.667v-2.667zM18.667 18.667h-5.333c-2.209 0-4-1.791-4-4s1.791-4 4-4h5.333c2.209 0 4 1.791 4 4s-1.791 4-4 4v0 0z"></path>
</svg>
<svg id="nimbl3-chart-purple" width="32" height="32" viewBox="0 0 32 32" x="144" y="48">
<path fill="#d18ee2" d="M14.43 31.998c-7.688 0-14.43-6.868-14.43-14.697 0-7.679 6.208-14.166 13.6-14.166 0.617 0 1.084 0.5 1.084 1.118v11.878c0 1.084 1.183 1.183 1.183 1.183h11.878c0.619 0 1.118 0.468 1.118 1.085-0 7.389-6.61 13.599-14.433 13.599v0zM30.614 14.313h-12.246c-0.577 0-1.025-0.449-1.025-1.025v-12.246c0-0.575 0.457-1.042 1.034-1.042 7.823 0 13.284 5.455 13.284 13.279 0 0.577-0.471 1.034-1.047 1.034v0z"></path>
</svg>
<svg id="nimbl3-chart-white" width="32" height="32" viewBox="0 0 32 32" x="192" y="48">
<path fill="#fff" d="M14.43 31.998c-7.688 0-14.43-6.868-14.43-14.697 0-7.679 6.208-14.166 13.6-14.166 0.617 0 1.084 0.5 1.084 1.118v11.878c0 1.084 1.183 1.183 1.183 1.183h11.878c0.619 0 1.118 0.468 1.118 1.085-0 7.389-6.61 13.599-14.433 13.599v0zM30.614 14.313h-12.246c-0.577 0-1.025-0.449-1.025-1.025v-12.246c0-0.575 0.457-1.042 1.034-1.042 7.823 0 13.284 5.455 13.284 13.279 0 0.577-0.471 1.034-1.047 1.034v0z"></path>
</svg>
<svg id="nimbl3-close-white" width="32" height="32" viewBox="0 0 32 32" x="240" y="48">
<path fill="#fff" d="M10.652 16l-10.697-10.697 5.348-5.348 10.697 10.697 10.697-10.697 5.348 5.348-10.697 10.697 10.697 10.697-5.348 5.348-10.697-10.697-10.697 10.697-5.348-5.348 10.697-10.697z"></path>
</svg>
<svg id="nimbl3-controls-purple" width="32" height="32" viewBox="0 0 32 32" x="288" y="48">
<path fill="#d18ee2" d="M16 32c-8.837 0-16-7.163-16-16s7.163-16 16-16c8.837 0 16 7.163 16 16s-7.163 16-16 16v0 0zM16 2.667c-7.364 0-13.333 5.97-13.333 13.333s5.97 13.333 13.333 13.333c7.364 0 13.333-5.97 13.333-13.333 0-3.536-1.405-6.928-3.905-9.428s-5.892-3.905-9.428-3.905v0 0zM26.667 16.009v-0.009h-2.667c0-4.418-3.582-8-8-8s-8 3.582-8 8h-2.667c0-5.891 4.776-10.667 10.667-10.667s10.667 4.776 10.667 10.667v0.009zM14.732 17.559c-0.023-0.077-0.038-0.155-0.047-0.235v-5.313c0-0.726 0.589-1.315 1.315-1.315s1.315 0.589 1.315 1.315v5.313c-0.008 0.079-0.024 0.157-0.047 0.233 1.86 0.621 2.996 2.499 2.682 4.435s-1.985 3.359-3.946 3.36c-1.961 0.001-3.634-1.42-3.95-3.356s0.818-3.815 2.678-4.437v0 0zM16 22.667c0.736 0 1.333-0.597 1.333-1.333s-0.597-1.333-1.333-1.333c-0.736 0-1.333 0.597-1.333 1.333s0.597 1.333 1.333 1.333v0 0z"></path>
</svg>
<svg id="nimbl3-controls-white" width="32" height="32" viewBox="0 0 32 32" x="336" y="48">
<path fill="#fff" d="M16 32c-8.837 0-16-7.163-16-16s7.163-16 16-16c8.837 0 16 7.163 16 16s-7.163 16-16 16v0 0zM16 2.667c-7.364 0-13.333 5.97-13.333 13.333s5.97 13.333 13.333 13.333c7.364 0 13.333-5.97 13.333-13.333 0-3.536-1.405-6.928-3.905-9.428s-5.892-3.905-9.428-3.905v0 0zM26.667 16.009v-0.009h-2.667c0-4.418-3.582-8-8-8s-8 3.582-8 8h-2.667c0-5.891 4.776-10.667 10.667-10.667s10.667 4.776 10.667 10.667v0.009zM14.732 17.559c-0.023-0.077-0.038-0.155-0.047-0.235v-5.313c0-0.726 0.589-1.315 1.315-1.315s1.315 0.589 1.315 1.315v5.313c-0.008 0.079-0.024 0.157-0.047 0.233 1.86 0.621 2.996 2.499 2.682 4.435s-1.985 3.359-3.946 3.36c-1.961 0.001-3.634-1.42-3.95-3.356s0.818-3.815 2.678-4.437v0 0zM16 22.667c0.736 0 1.333-0.597 1.333-1.333s-0.597-1.333-1.333-1.333c-0.736 0-1.333 0.597-1.333 1.333s0.597 1.333 1.333 1.333v0 0z"></path>
</svg>
<svg id="nimbl3-document-purple" width="32" height="32" viewBox="0 0 32 32" x="384" y="48">
<path fill="#d18ee2" d="M9.018 0c-1.76 0-3.2 1.44-3.2 3.2v25.6c0 1.76 1.44 3.2 3.2 3.2h19.2c1.76 0 3.2-1.44 3.2-3.2v-19.2l-9.6-9.6h-12.8zM20.218 11.2v-8.8l8.8 8.8h-8.8z"></path>
</svg>
<svg id="nimbl3-document-white" width="32" height="32" viewBox="0 0 32 32" x="432" y="48">
<path fill="#fff" d="M9.018 0c-1.76 0-3.2 1.44-3.2 3.2v25.6c0 1.76 1.44 3.2 3.2 3.2h19.2c1.76 0 3.2-1.44 3.2-3.2v-19.2l-9.6-9.6h-12.8zM20.218 11.2v-8.8l8.8 8.8h-8.8z"></path>
</svg>
<svg id="nimbl3-factory-purple" width="32" height="32" viewBox="0 0 32 32" x="480" y="48">
<path fill="#d18ee2" d="M29.745 15.924l-1.502-14.913c0 0-0.517-0.527-1.525-0.527s-1.479 0.527-1.479 0.527l-1.501 14.913h6.007z"></path>
<path fill="#d18ee2" d="M22.068 15.924l-1.050-10.439c0 0-0.361-0.369-1.068-0.369s-1.036 0.369-1.036 0.369l-1.049 10.439h4.204z"></path>
<path fill="#d18ee2" d="M27.784 23.412c0 0.413-0.337 0.746-0.751 0.746h-4.505c-0.415 0-0.751-0.333-0.751-0.746v-2.236c0-0.413 0.336-0.744 0.751-0.744h4.505c0.414 0 0.751 0.332 0.751 0.744v2.236zM18.773 23.412c0 0.413-0.337 0.746-0.751 0.746h-4.505c-0.415 0-0.751-0.333-0.751-0.746v-2.236c0-0.413 0.336-0.744 0.751-0.744h4.505c0.414 0 0.751 0.332 0.751 0.744v2.236zM9.762 23.412c0 0.413-0.337 0.746-0.751 0.746h-4.505c-0.414 0-0.751-0.333-0.751-0.746v-2.236c0-0.413 0.336-0.744 0.751-0.744h4.505c0.414 0 0.751 0.332 0.751 0.744v2.236zM30.787 16.811l-14.268-0.009v-2.237c0-0.248-0.123-0.479-0.33-0.617s-0.469-0.168-0.699-0.074l-6.48 2.573v-1.882c0-0.248-0.123-0.479-0.33-0.617s-0.469-0.168-0.7-0.074l-7.509 2.982c-0.286 0.114-0.472 0.387-0.472 0.692v13.001c0 0.412 0.336 0.745 0.751 0.745h30.036c0.415 0 0.751-0.333 0.751-0.745v-12.991c0-0.412-0.335-0.746-0.751-0.746v0 0z"></path>
</svg>
<svg id="nimbl3-factory-white" width="32" height="32" viewBox="0 0 32 32" x="528" y="48">
<path fill="#fff" d="M29.745 15.924l-1.502-14.913c0 0-0.517-0.527-1.525-0.527s-1.479 0.527-1.479 0.527l-1.501 14.913h6.007z"></path>
<path fill="#fff" d="M22.068 15.924l-1.050-10.439c0 0-0.361-0.369-1.068-0.369s-1.036 0.369-1.036 0.369l-1.049 10.439h4.204z"></path>
<path fill="#fff" d="M27.784 23.412c0 0.413-0.337 0.746-0.751 0.746h-4.505c-0.415 0-0.751-0.333-0.751-0.746v-2.236c0-0.413 0.336-0.744 0.751-0.744h4.505c0.414 0 0.751 0.332 0.751 0.744v2.236zM18.773 23.412c0 0.413-0.337 0.746-0.751 0.746h-4.505c-0.415 0-0.751-0.333-0.751-0.746v-2.236c0-0.413 0.336-0.744 0.751-0.744h4.505c0.414 0 0.751 0.332 0.751 0.744v2.236zM9.762 23.412c0 0.413-0.337 0.746-0.751 0.746h-4.505c-0.414 0-0.751-0.333-0.751-0.746v-2.236c0-0.413 0.336-0.744 0.751-0.744h4.505c0.414 0 0.751 0.332 0.751 0.744v2.236zM30.787 16.811l-14.268-0.009v-2.237c0-0.248-0.123-0.479-0.33-0.617s-0.469-0.168-0.699-0.074l-6.48 2.573v-1.882c0-0.248-0.123-0.479-0.33-0.617s-0.469-0.168-0.7-0.074l-7.509 2.982c-0.286 0.114-0.472 0.387-0.472 0.692v13.001c0 0.412 0.336 0.745 0.751 0.745h30.036c0.415 0 0.751-0.333 0.751-0.745v-12.991c0-0.412-0.335-0.746-0.751-0.746v0 0z"></path>
</svg>
<svg id="nimbl3-gear-purple" width="32" height="32" viewBox="0 0 32 32" x="576" y="48">
<path fill="#d18ee2" d="M31.896 17.853c-0.113 0.984-0.943 1.728-1.933 1.733h-0.267c-0.889 0.004-1.684 0.555-2 1.386s-0.088 1.771 0.573 2.365c0.76 0.701 0.853 1.869 0.213 2.681-0.765 0.951-1.637 1.809-2.6 2.559-0.343 0.268-0.765 0.415-1.2 0.417-0.552-0.001-1.078-0.232-1.453-0.636-0.437-0.45-1.039-0.701-1.667-0.695-0.256-0.001-0.509 0.046-0.747 0.14-0.833 0.35-1.363 1.177-1.333 2.080 0.033 1.025-0.727 1.904-1.747 2.019-1.196 0.133-2.404 0.13-3.6-0.009-1.031-0.121-1.787-1.027-1.72-2.063 0.045-0.911-0.481-1.754-1.32-2.113-0.241-0.097-0.5-0.147-0.76-0.145-0.627-0.006-1.229 0.245-1.667 0.693-0.7 0.772-1.88 0.865-2.693 0.213-0.935-0.756-1.78-1.616-2.52-2.564-0.64-0.802-0.546-1.964 0.213-2.653 0.663-0.614 0.881-1.572 0.547-2.412-0.32-0.791-1.080-1.316-1.933-1.333h-0.080c-1.031 0.014-1.918-0.724-2.093-1.74-0.147-1.208-0.147-2.43 0-3.639 0.106-1.014 0.981-1.773 2-1.733 0.922 0.036 1.777-0.481 2.173-1.315 0.349-0.844 0.13-1.817-0.547-2.431-0.76-0.7-0.853-1.868-0.213-2.68 0.762-0.949 1.63-1.808 2.587-2.56 0.348-0.268 0.774-0.415 1.213-0.417 0.552 0.002 1.079 0.234 1.453 0.64 0.439 0.447 1.040 0.696 1.667 0.689 0.255 0.003 0.508-0.043 0.747-0.133 0.833-0.351 1.364-1.18 1.333-2.084-0.032-1.024 0.728-1.902 1.747-2.016 1.197-0.132 2.404-0.129 3.6 0.009 1.030 0.121 1.785 1.026 1.72 2.061-0.051 0.913 0.477 1.76 1.32 2.116 0.242 0.096 0.5 0.145 0.76 0.144 0.627 0.005 1.228-0.244 1.667-0.692 0.696-0.769 1.87-0.863 2.68-0.216 0.94 0.753 1.79 1.613 2.533 2.561 0.644 0.806 0.551 1.974-0.213 2.667-0.664 0.601-0.886 1.551-0.557 2.384s1.141 1.374 2.037 1.359c1.024-0.009 1.904 0.725 2.080 1.733 0.139 1.206 0.139 2.424 0 3.629v0 0zM29.256 14.756c-1.701-0.040-3.218-1.082-3.865-2.656s-0.302-3.382 0.878-4.607c-0.52-0.639-1.101-1.226-1.733-1.753-0.829 0.773-1.92 1.202-3.053 1.2-0.544 0.003-1.084-0.102-1.587-0.311-1.581-0.669-2.613-2.213-2.627-3.929-0.82-0.076-1.646-0.076-2.467 0-0.093 1.653-1.187 3.081-2.76 3.6-0.446 0.283-0.945 0.472-1.467 0.556-1.127 0.001-2.213-0.423-3.040-1.188-0.651 0.526-1.249 1.114-1.787 1.756 1.194 1.234 1.54 3.060 0.88 4.645-0.689 1.559-2.216 2.581-3.92 2.621-0.078 0.834-0.082 1.672-0.013 2.507 1.705 0.033 3.228 1.075 3.877 2.653s0.299 3.39-0.89 4.613c0.527 0.633 1.107 1.22 1.733 1.755 0.831-0.769 1.921-1.197 3.053-1.2 0.549-0.004 1.093 0.102 1.6 0.312 1.582 0.666 2.615 2.21 2.627 3.927 0.82 0.077 1.646 0.077 2.467 0 0.053-1.694 1.090-3.202 2.653-3.857 0.496-0.199 1.026-0.301 1.56-0.299 1.131-0.003 2.222 0.421 3.053 1.189 0.647-0.531 1.245-1.119 1.787-1.756-1.201-1.231-1.547-3.061-0.88-4.645 0.673-1.574 2.208-2.605 3.92-2.632 0.080-0.833 0.080-1.672 0-2.505v0.005zM16.003 21.32c-2.162 0.009-4.116-1.287-4.95-3.282s-0.382-4.296 1.144-5.828c1.526-1.532 3.825-1.993 5.823-1.168s3.302 2.774 3.302 4.937c0.004 2.943-2.377 5.334-5.32 5.341v0 0z"></path>
</svg>
<svg id="nimbl3-gear-white" width="32" height="32" viewBox="0 0 32 32" x="624" y="48">
<path fill="#fff" d="M31.897 17.853c-0.113 0.984-0.943 1.728-1.933 1.733h-0.267c-0.889 0.004-1.684 0.555-2 1.386s-0.088 1.771 0.573 2.365c0.76 0.701 0.853 1.869 0.213 2.681-0.765 0.951-1.637 1.809-2.6 2.559-0.343 0.268-0.765 0.415-1.2 0.417-0.552-0.001-1.078-0.232-1.453-0.636-0.437-0.45-1.039-0.701-1.667-0.695-0.256-0.001-0.509 0.046-0.747 0.14-0.833 0.35-1.363 1.177-1.333 2.080 0.033 1.025-0.727 1.904-1.747 2.019-1.197 0.133-2.404 0.13-3.6-0.009-1.031-0.121-1.787-1.027-1.72-2.063 0.045-0.911-0.481-1.754-1.32-2.113-0.241-0.097-0.5-0.147-0.76-0.145-0.627-0.006-1.229 0.245-1.667 0.693-0.7 0.772-1.88 0.865-2.693 0.213-0.935-0.756-1.78-1.616-2.52-2.564-0.64-0.802-0.546-1.964 0.213-2.653 0.663-0.614 0.881-1.572 0.547-2.412-0.32-0.791-1.080-1.316-1.933-1.333h-0.080c-1.031 0.014-1.918-0.724-2.093-1.74-0.147-1.208-0.147-2.43 0-3.639 0.106-1.014 0.981-1.773 2-1.733 0.922 0.036 1.777-0.481 2.173-1.315 0.349-0.844 0.13-1.817-0.547-2.431-0.76-0.7-0.853-1.868-0.213-2.68 0.762-0.949 1.63-1.808 2.587-2.56 0.348-0.268 0.774-0.415 1.213-0.417 0.552 0.002 1.079 0.234 1.453 0.64 0.439 0.447 1.041 0.696 1.667 0.689 0.255 0.003 0.508-0.043 0.747-0.133 0.834-0.351 1.364-1.18 1.333-2.084-0.032-1.024 0.728-1.902 1.747-2.016 1.197-0.132 2.404-0.129 3.6 0.009 1.030 0.121 1.785 1.026 1.72 2.061-0.051 0.913 0.477 1.76 1.32 2.116 0.242 0.096 0.5 0.145 0.76 0.144 0.627 0.005 1.228-0.244 1.667-0.692 0.696-0.769 1.87-0.863 2.68-0.216 0.94 0.753 1.79 1.613 2.533 2.561 0.644 0.806 0.551 1.974-0.213 2.667-0.664 0.601-0.886 1.551-0.557 2.384s1.141 1.374 2.037 1.359c1.024-0.009 1.904 0.725 2.080 1.733 0.139 1.206 0.139 2.424 0 3.629v0 0zM29.257 14.756c-1.701-0.040-3.218-1.082-3.865-2.656s-0.302-3.382 0.878-4.607c-0.52-0.639-1.101-1.226-1.733-1.753-0.829 0.773-1.92 1.202-3.053 1.2-0.544 0.003-1.084-0.102-1.587-0.311-1.581-0.669-2.613-2.213-2.627-3.929-0.82-0.076-1.646-0.076-2.467 0-0.093 1.653-1.188 3.081-2.76 3.6-0.446 0.283-0.945 0.472-1.467 0.556-1.127 0.001-2.213-0.423-3.040-1.188-0.651 0.526-1.249 1.114-1.787 1.756 1.194 1.234 1.54 3.060 0.88 4.645-0.689 1.559-2.216 2.581-3.92 2.621-0.078 0.834-0.082 1.672-0.013 2.507 1.705 0.033 3.229 1.075 3.877 2.653s0.299 3.39-0.89 4.613c0.527 0.633 1.107 1.22 1.733 1.755 0.831-0.769 1.921-1.197 3.053-1.2 0.549-0.004 1.093 0.102 1.6 0.312 1.582 0.666 2.615 2.21 2.627 3.927 0.82 0.077 1.646 0.077 2.467 0 0.053-1.694 1.090-3.202 2.653-3.857 0.496-0.199 1.026-0.301 1.56-0.299 1.131-0.003 2.222 0.421 3.053 1.189 0.647-0.531 1.245-1.119 1.787-1.756-1.201-1.231-1.547-3.061-0.88-4.645 0.673-1.574 2.209-2.605 3.92-2.632 0.080-0.833 0.080-1.672 0-2.505v0.005zM16.004 21.32c-2.162 0.009-4.117-1.287-4.95-3.282s-0.382-4.296 1.144-5.828c1.526-1.532 3.825-1.993 5.824-1.168s3.302 2.774 3.302 4.937c0.004 2.943-2.377 5.334-5.32 5.341v0 0z"></path>
</svg>
<svg id="nimbl3-hierarchy-purple" width="32" height="32" viewBox="0 0 32 32" x="672" y="48">
<path fill="#d18ee2" d="M16.119 6.513c1.89 0 3.441-1.447 3.441-3.257s-1.55-3.257-3.441-3.257c-1.89 0-3.441 1.447-3.441 3.257s1.55 3.257 3.441 3.257v0 0 0zM16.787 14.342v-1.614h-1.333v1.614h-10.101v2.946h1.333v-2.279l-0.667 0.667h20.201l-0.667-0.667v2.279h1.333v-2.946h-10.1zM29.152 23.929v0 0c0.367 0.29 0.807 0.704 1.245 1.241 0.998 1.222 1.603 2.651 1.603 4.268v0.667h-5.899v-1.333h5.233l-0.667 0.667c0-1.279-0.485-2.424-1.302-3.425-0.29-0.355-0.602-0.666-0.913-0.928-0.068-0.058-0.13-0.108-0.184-0.15-0.593 0.448-1.349 0.715-2.167 0.715s-1.573-0.267-2.167-0.714c-0.054 0.043-0.116 0.093-0.184 0.15-0.311 0.262-0.622 0.573-0.913 0.928-0.818 1.001-1.303 2.146-1.303 3.425l-0.667-0.667h5.233v1.333h-5.899v-0.667c0-1.617 0.605-3.046 1.603-4.268 0.438-0.536 0.877-0.951 1.245-1.24-0.249-0.442-0.389-0.947-0.389-1.484 0-1.783 1.553-3.204 3.441-3.204s3.441 1.421 3.441 3.204c0 0.537-0.141 1.041-0.389 1.484zM8.951 23.929v0 0c0.367 0.29 0.806 0.704 1.245 1.24 0.998 1.222 1.603 2.651 1.603 4.268v0.667h-5.899v-1.333h5.233l-0.667 0.667c0-1.279-0.485-2.424-1.303-3.425-0.29-0.355-0.602-0.666-0.913-0.928-0.068-0.057-0.13-0.108-0.184-0.15-0.593 0.448-1.348 0.714-2.167 0.714s-1.573-0.267-2.167-0.714c-0.054 0.043-0.116 0.093-0.184 0.15-0.311 0.262-0.623 0.573-0.913 0.928-0.818 1.001-1.303 2.146-1.303 3.425l-0.667-0.667h5.233v1.333h-5.9v-0.667c0-1.617 0.605-3.047 1.604-4.269 0.438-0.536 0.878-0.951 1.245-1.24-0.248-0.442-0.389-0.947-0.389-1.484 0-1.783 1.553-3.204 3.441-3.204s3.441 1.421 3.441 3.204c0 0.537-0.141 1.041-0.389 1.484zM16.119 5.18c-1.174 0-2.107-0.872-2.107-1.923s0.934-1.923 2.107-1.923c1.174 0 2.107 0.872 2.107 1.923s-0.934 1.923-2.107 1.923v0 0zM16.12 9.729v1.333h-5.9v-0.667c0-1.645 0.603-3.099 1.6-4.344 0.593-0.74 1.188-1.253 1.604-1.531l0.741 1.109c-0.069 0.046-0.207 0.149-0.389 0.307-0.311 0.268-0.623 0.585-0.914 0.948-0.82 1.025-1.307 2.199-1.307 3.51l-0.667-0.667h5.233zM16.12 11.062v-1.333h5.233l-0.667 0.667c0-1.312-0.487-2.486-1.307-3.51-0.291-0.363-0.603-0.681-0.914-0.948-0.183-0.157-0.32-0.261-0.389-0.307l0.741-1.109c0.416 0.278 1.010 0.79 1.603 1.531 0.996 1.245 1.599 2.699 1.599 4.344v0.667h-5.899z"></path>
</svg>
<svg id="nimbl3-hierarchy-white" width="32" height="32" viewBox="0 0 32 32" x="720" y="48">
<path fill="#fff" d="M16.119 6.513c1.89 0 3.441-1.447 3.441-3.257s-1.55-3.257-3.441-3.257c-1.89 0-3.441 1.447-3.441 3.257s1.55 3.257 3.441 3.257v0 0 0zM16.787 14.342v-1.614h-1.333v1.614h-10.101v2.946h1.333v-2.279l-0.667 0.667h20.201l-0.667-0.667v2.279h1.333v-2.946h-10.1zM29.152 23.929v0 0c0.367 0.29 0.807 0.704 1.245 1.241 0.998 1.222 1.603 2.651 1.603 4.268v0.667h-5.899v-1.333h5.233l-0.667 0.667c0-1.279-0.485-2.424-1.302-3.425-0.29-0.355-0.602-0.666-0.913-0.928-0.068-0.058-0.13-0.108-0.184-0.15-0.593 0.448-1.349 0.715-2.167 0.715s-1.573-0.267-2.167-0.714c-0.054 0.043-0.116 0.093-0.184 0.15-0.311 0.262-0.622 0.573-0.913 0.928-0.818 1.001-1.303 2.146-1.303 3.425l-0.667-0.667h5.233v1.333h-5.899v-0.667c0-1.617 0.605-3.046 1.603-4.268 0.438-0.536 0.877-0.951 1.245-1.24-0.249-0.442-0.389-0.947-0.389-1.484 0-1.783 1.553-3.204 3.441-3.204s3.441 1.421 3.441 3.204c0 0.537-0.141 1.041-0.389 1.484zM8.951 23.929v0 0c0.367 0.29 0.806 0.704 1.245 1.24 0.998 1.222 1.603 2.651 1.603 4.268v0.667h-5.899v-1.333h5.233l-0.667 0.667c0-1.279-0.485-2.424-1.303-3.425-0.29-0.355-0.602-0.666-0.913-0.928-0.068-0.057-0.13-0.108-0.184-0.15-0.593 0.448-1.348 0.714-2.167 0.714s-1.573-0.267-2.167-0.714c-0.054 0.043-0.116 0.093-0.184 0.15-0.311 0.262-0.623 0.573-0.913 0.928-0.818 1.001-1.303 2.146-1.303 3.425l-0.667-0.667h5.233v1.333h-5.9v-0.667c0-1.617 0.605-3.047 1.604-4.269 0.438-0.536 0.878-0.951 1.245-1.24-0.248-0.442-0.389-0.947-0.389-1.484 0-1.783 1.553-3.204 3.441-3.204s3.441 1.421 3.441 3.204c0 0.537-0.141 1.041-0.389 1.484zM16.119 5.18c-1.174 0-2.107-0.872-2.107-1.923s0.934-1.923 2.107-1.923c1.174 0 2.107 0.872 2.107 1.923s-0.934 1.923-2.107 1.923v0 0zM16.12 9.729v1.333h-5.9v-0.667c0-1.645 0.603-3.099 1.6-4.344 0.593-0.74 1.188-1.253 1.604-1.531l0.741 1.109c-0.069 0.046-0.207 0.149-0.389 0.307-0.311 0.268-0.623 0.585-0.914 0.948-0.82 1.025-1.307 2.199-1.307 3.51l-0.667-0.667h5.233zM16.12 11.062v-1.333h5.233l-0.667 0.667c0-1.312-0.487-2.486-1.307-3.51-0.291-0.363-0.603-0.681-0.914-0.948-0.183-0.157-0.32-0.261-0.389-0.307l0.741-1.109c0.416 0.278 1.010 0.79 1.603 1.531 0.996 1.245 1.599 2.699 1.599 4.344v0.667h-5.899z"></path>
</svg>
<svg id="nimbl3-icon_edit" width="32" height="32" viewBox="0 0 32 32" x="0" y="96">
<path fill="#89a" d="M0 3.876v24.248c0 2.133 1.735 3.876 3.876 3.876h24.248c2.133 0 3.876-1.735 3.876-3.876v-24.248c0-2.133-1.735-3.876-3.876-3.876h-24.248c-2.133 0-3.876 1.735-3.876 3.876zM18.412 11.024l3.248 2.717-8.046 9.621-3.248-2.717 8.046-9.621zM9.412 25.229l0.437-3.891 3.249 2.765-3.685 1.126zM19.532 9.58l3.249 2.716-0.581 0.694-3.249-2.716 0.581-0.694zM21.222 7.529l3.249 2.716-1.073 1.283-3.249-2.716 1.073-1.283z"></path>
</svg>
<svg id="nimbl3-icon_fb" width="32" height="32" viewBox="0 0 32 32" x="48" y="96">
<path fill="#fff" d="M6.4 13.867c2.489 4.978 6.756 9.067 11.733 11.733l3.911-3.911c0.533-0.533 1.244-0.711 1.778-0.356 1.956 0.711 4.089 1.067 6.4 1.067 1.067 0 1.778 0.711 1.778 1.778v6.044c0 1.067-0.711 1.778-1.778 1.778-16.711 0-30.222-13.511-30.222-30.222 0-1.067 0.711-1.778 1.778-1.778h6.222c1.067 0 1.778 0.711 1.778 1.778 0 2.133 0.356 4.267 1.067 6.4 0.178 0.533 0 1.244-0.356 1.778l-4.089 3.911z"></path>
<path fill="#fff" d="M16 32h-16v-32h32v32h-10.667v-10.667h5.333v-5.333h-5.333v-3.929c0-2.738 5.333-1.405 5.333-1.405v-5.333c-5.333 0-6.762 0.113-8 1.333s-2.667 3.19-2.667 5.405v3.929h-5.333v5.333h5.333c0 0-0.299 6.442 0 10.667z"></path>
</svg>
<svg id="nimbl3-icon_linkedin" width="32" height="32" viewBox="0 0 32 32" x="96" y="96">
<path fill="#fff" d="M0 3.664c0-1.057 0.368-1.932 1.103-2.624s1.696-1.039 2.882-1.039c1.186 0 2.135 0.346 2.849 1.039s1.078 1.568 1.093 2.624c0.014 1.043-0.346 1.914-1.082 2.614s-1.703 1.050-2.903 1.050h-0.043c-1.171 0-2.114-0.35-2.828-1.050s-1.071-1.571-1.071-2.614zM0.407 31.451v-21.232h7.070v21.232h-7.070zM10.665 31.87c0.029-5.699 0-11.388 0-14.931v-6.399l7.76-0.321v3.085c0.243-0.457 0.536-0.857 0.836-1.2s0.703-0.714 1.21-1.114c0.507-0.4 1.128-0.711 1.864-0.932s1.553-0.332 2.453-0.332c2.442 0 4.406 0.811 5.892 2.432s1.314 3.786 1.314 6.914v12.798h-6.399l0.264-11.774c0-1.5-0.289-2.675-0.868-3.524s-1.482-1.275-2.71-1.275c-0.9 0-1.653 0.246-2.26 0.739s-1.591 2.308-1.891 3.036c-0.157 0.428 0 12.798 0 12.798h-7.465z"></path>
</svg>
<svg id="nimbl3-icon_mail" width="32" height="32" viewBox="0 0 32 32" x="144" y="96">
<path fill="#fff" d="M28.8 2.909h-25.6c-1.76 0-3.2 1.44-3.2 3.2v19.2c0 1.76 1.44 3.2 3.2 3.2h25.6c1.76 0 3.2-1.44 3.2-3.2v-19.2c0-1.76-1.44-3.2-3.2-3.2v0zM16 17.509l-16-7.771v-1.829l16 7.771 16-7.771v1.829l-16 7.771z"></path>
</svg>
<svg id="nimbl3-icon_phone" width="32" height="32" viewBox="0 0 32 32" x="192" y="96">
<path fill="#fff" d="M6.4 13.867c2.489 4.978 6.756 9.067 11.733 11.733l3.911-3.911c0.533-0.533 1.244-0.711 1.778-0.356 1.956 0.711 4.089 1.067 6.4 1.067 1.067 0 1.778 0.711 1.778 1.778v6.044c0 1.067-0.711 1.778-1.778 1.778-16.711 0-30.222-13.511-30.222-30.222 0-1.067 0.711-1.778 1.778-1.778h6.222c1.067 0 1.778 0.711 1.778 1.778 0 2.133 0.356 4.267 1.067 6.4 0.178 0.533 0 1.244-0.356 1.778l-4.089 3.911z"></path>
</svg>
<svg id="nimbl3-icon_play" width="32" height="32" viewBox="0 0 32 32" x="240" y="96">
<path fill="#626272" d="M8.954 30.463c-1.732 1.268-3.136 0.564-3.136-1.583v-25.764c0-2.142 1.398-2.855 3.136-1.583l16.628 12.169c1.732 1.268 1.738 3.318 0 4.591l-16.628 12.169z"></path>
</svg>
<svg id="nimbl3-icon_plus" width="32" height="32" viewBox="0 0 32 32" x="288" y="96">
<path fill="#89a" d="M15.721 0.002c-8.799 0.154-15.872 7.478-15.718 16.277s7.478 15.872 16.277 15.718c8.799-0.154 15.872-7.478 15.718-16.277s-7.478-15.872-16.277-15.718v0zM24.027 17.46l-6.399 0.112 0.112 6.399-3.2 0.056-0.112-6.399-6.399 0.112-0.056-3.2 6.399-0.112-0.112-6.399 3.199-0.056 0.112 6.399 6.399-0.112 0.056 3.199z"></path>
</svg>
<svg id="nimbl3-icon_twitter" width="32" height="32" viewBox="0 0 32 32" x="336" y="96">
<path fill="#fff" d="M0 25.972c3.083 1.958 6.437 2.938 10.063 2.938 2.333 0 4.521-0.37 6.563-1.109s3.792-1.729 5.25-2.969c1.458-1.24 2.714-2.667 3.766-4.281s1.833-3.302 2.344-5.063c0.51-1.76 0.766-3.516 0.766-5.266 0-0.375-0.010-0.656-0.031-0.844 1.313-0.938 2.406-2.073 3.281-3.406-1.167 0.521-2.427 0.875-3.781 1.063 1.417-0.833 2.385-2.052 2.906-3.656-1.354 0.792-2.75 1.323-4.188 1.594-1.271-1.375-2.865-2.063-4.781-2.063-1.813 0-3.359 0.641-4.641 1.922s-1.922 2.828-1.922 4.641c0 0.604 0.052 1.104 0.156 1.5-2.688-0.146-5.208-0.823-7.563-2.031s-4.354-2.823-6-4.844c-0.604 1.042-0.906 2.146-0.906 3.313 0 2.375 0.948 4.198 2.844 5.469-0.979-0.021-2.021-0.292-3.125-0.813v0.063c0 1.563 0.521 2.953 1.563 4.172s2.323 1.974 3.844 2.266c-0.604 0.167-1.135 0.25-1.594 0.25-0.271 0-0.677-0.042-1.219-0.125 0.438 1.313 1.214 2.396 2.328 3.25s2.38 1.292 3.797 1.313c-2.417 1.875-5.135 2.813-8.156 2.813-0.542 0-1.063-0.031-1.563-0.094v0z"></path>
</svg>
</svg>
